<svg version="1.1" xmlns="http://www.w3.org/2000/svg" xmlns:xlink="http://www.w3.org/1999/xlink" x="0px" y="0px"
	 viewBox="0 0 40 40" enable-background="new 0 0 40 40" xml:space="preserve">
<path fill="#E4C52E" d="M34.249,21.012v16.773h4.44l-0.003-16.782c-0.003-3.882-3.161-7.039-7.044-7.039V1.752H9.249v12.211
	c-3.882,0-7.041,3.157-7.044,7.039l-0.014,16.67l0.014,0.004H2.191c0,0.036,0.002,0.072,0.003,0.107h4.448V21.012l-0.017-0.004
	h0.017c0-1.437,1.169-2.607,2.607-2.607v12.894h5.22v6.49h4.437v-6.49h3.078v6.49h4.437v-6.49h5.22V18.401
	C33.079,18.401,34.249,19.575,34.249,21.012z M24.198,18.897h-7.516v-2.444h7.516V18.897z M26.825,13.274h-2.628v2.388h-7.516
	v-2.388h-2.628V9.11h2.341c-0.493,0.276-0.826,0.803-0.826,1.407c0,0.891,0.722,1.613,1.613,1.613c0.891,0,1.613-0.722,1.613-1.613
	c0-0.605-0.333-1.131-0.825-1.407h4.94c-0.493,0.276-0.826,0.803-0.826,1.407c0,0.891,0.722,1.613,1.613,1.613
	s1.613-0.722,1.613-1.613c0-0.605-0.333-1.131-0.826-1.407h2.34V13.274z"/>
<rect x="4.869" y="4.54" fill="#E4C52E" width="3.374" height="6.886"/>
<rect x="32.418" y="4.54" fill="#E4C52E" width="3.375" height="6.886"/>
</svg>
