<svg version="1.1" id="powered_svg" xmlns="http://www.w3.org/2000/svg" xmlns:xlink="http://www.w3.org/1999/xlink" x="0px" y="0px"
	 viewBox="0 0 244 45" enable-background="new 0 0 244 45" xml:space="preserve">
	<path fill="#8B3B3B" d="M32.758,20.093v16.773h4.44l-0.003-16.782c-0.003-3.882-3.161-7.039-7.044-7.039V0.833H7.758v12.211
		c-3.882,0-7.041,3.157-7.044,7.039l-0.014,16.67l0.014,0.004H0.701c0,0.036,0.002,0.072,0.003,0.107h4.448V20.093l-0.017-0.004
		h0.017c0-1.437,1.169-2.607,2.607-2.607v12.894h5.22v6.49h4.437v-6.49h3.078v6.49h4.437v-6.49h5.22V17.482
		C31.589,17.482,32.758,18.656,32.758,20.093z M22.707,17.978h-7.516v-2.444h7.516V17.978z M25.335,12.355h-2.628v2.388h-7.516
		v-2.388h-2.628V8.191h2.341c-0.493,0.276-0.826,0.803-0.826,1.407c0,0.891,0.722,1.613,1.613,1.613
		c0.891,0,1.613-0.722,1.613-1.613c0-0.605-0.333-1.131-0.825-1.407h4.94c-0.493,0.276-0.826,0.803-0.826,1.407
		c0,0.891,0.722,1.613,1.613,1.613s1.613-0.722,1.613-1.613c0-0.605-0.333-1.131-0.826-1.407h2.34V12.355z"/>
	<text transform="matrix(1 0 0 1 42.9336 37.148)" fill="#8B3B3B" font-family="'GearedSlab-Thin'" font-size="24.5044">Powered by Monkeytech</text>
	<rect x="3.378" y="3.621" fill="#8B3B3B" width="3.374" height="6.886"/>
	<rect x="30.927" y="3.621" fill="#8B3B3B" width="3.375" height="6.886"/>
</svg>
