<?xml version="1.0" encoding="utf-8"?>
<!-- Generator: Adobe Illustrator 17.1.0, SVG Export Plug-In . SVG Version: 6.00 Build 0)  -->
<!DOCTYPE svg PUBLIC "-//W3C//DTD SVG 1.1//EN" "http://www.w3.org/Graphics/SVG/1.1/DTD/svg11.dtd">
<svg version="1.1" id="Your_Icon" xmlns="http://www.w3.org/2000/svg" xmlns:xlink="http://www.w3.org/1999/xlink" x="0px" y="0px"
	 viewBox="0 0 100 100" enable-background="new 0 0 100 100" xml:space="preserve">
<path d="M82.846,70.82c1.828-12.076-6.209-19.313-12.644-22.46c3.327-10.952,3.786-23.016-1.218-33.068
	c-0.04-0.081-0.095-0.15-0.142-0.225c-2.712-4.832-6.121-10.604-12.585-9.591c-6.941,1.089-6.868,7.301-6.752,11.923
	c-0.099,2.799-0.592,8.902-2.822,16.559c-4.246-3.197-12.172-6.672-21.942,0.712c-0.908,0.687-1.289,1.871-0.949,2.956
	c0.34,1.089,1.327,1.845,2.463,1.892c0.061,0.003,6.221,0.732,13.265,11.253c-0.085,0.149-0.171,0.297-0.258,0.446
	C30.233,66.123,18.487,73.946,14.426,76.34c-4.118,2.103-9.616,5.001-7.262,11.623c0.759,2.131,2.055,3.555,3.658,4.509
	c2.987,1.776,7.032,1.921,10.615,1.975c0.139,0.018,0.279,0.025,0.424,0.021C39.282,93.853,55.6,76.46,63.175,63.9
	c11.112,1.66,14.475,7.523,14.607,7.762c0.539,1.035,1.686,1.608,2.838,1.417C81.774,72.886,82.672,71.975,82.846,70.82z
	 M57.093,10.808c2.48-0.387,4.229,1.896,7.18,7.15c4.411,9.134,4.667,24.492-3.82,39.932c-0.319-0.1-0.661-0.147-1.015-0.119
	c-9.713,0.757-12.711-5.15-13.507-7.46c9.513-18.287,9.017-34.062,8.987-34.795c-0.003-0.083-0.024-0.161-0.035-0.243
	C54.921,11.584,55.468,11.063,57.093,10.808z M53.73,62.872c-5.211,4.416-9.817,6.311-12.505,7.103
	c-0.015-3.496,1.048-8.766,2.207-13.177c1.137,1.434,2.603,2.807,4.461,3.913C49.528,61.684,51.463,62.449,53.73,62.872z
	 M32.821,36.397c-0.022-0.013-0.045-0.027-0.065-0.039c5.976-2.043,10.283,1.232,12.113,3.065c-0.726,1.939-1.568,3.941-2.536,5.982
	C38.837,40.743,35.516,38.001,32.821,36.397z M21.915,89.056c-5.996-0.091-8.824-0.543-9.663-2.901
	c-0.547-1.539-0.356-2.27,2.804-4.032c0.1-0.035,0.199-0.075,0.298-0.123c0.559-0.275,10.797-5.422,20.933-17.407
	c-0.51,3.541-0.663,7.021,0.057,9.407c0.201,0.664,0.64,1.202,1.204,1.538c0.461,0.275,1.009,0.414,1.576,0.373
	c0.293-0.021,5.198-0.438,11.88-4.435c-2.235,2.575-4.635,4.996-7.087,7.126C38.66,83.166,30.593,88.653,21.915,89.056z
	 M65.968,58.917c0.876-1.735,1.686-3.537,2.422-5.39c3.013,1.585,7.342,4.707,8.809,10.035
	C74.631,61.745,70.983,59.938,65.968,58.917z"/>
</svg>
