<?xml version="1.0" encoding="utf-8"?>
<!-- Generator: Adobe Illustrator 17.1.0, SVG Export Plug-In . SVG Version: 6.00 Build 0)  -->
<!DOCTYPE svg PUBLIC "-//W3C//DTD SVG 1.1//EN" "http://www.w3.org/Graphics/SVG/1.1/DTD/svg11.dtd">
<svg version="1.1" xmlns="http://www.w3.org/2000/svg" xmlns:xlink="http://www.w3.org/1999/xlink" x="0px" y="0px"
	 viewBox="0 0 74.667 72" enable-background="new 0 0 74.667 72" xml:space="preserve">
<g id="Layer_1" display="none">
</g>
<g id="Layer_2">
	<g opacity="0.24">
		<path fill="#E4C52E" d="M23.36,19.186c-0.153-2.779-2.281-4.02-3.863-4.423c0.234-2.597-0.223-5.31-1.806-7.32
			c-0.013-0.016-0.028-0.029-0.042-0.044c-0.829-0.952-1.857-2.081-3.252-1.556c-1.498,0.565-1.193,1.947-0.953,2.973
			c0.108,0.629,0.281,2.013,0.139,3.825c-1.096-0.516-3.025-0.923-4.861,1.177c-0.171,0.195-0.201,0.477-0.075,0.704
			c0.126,0.227,0.382,0.35,0.637,0.308c0.014-0.002,1.422-0.125,3.481,1.895c-0.012,0.037-0.024,0.074-0.037,0.111
			c-1.322,3.744-3.579,6.034-4.374,6.757c-0.821,0.66-1.913,1.562-1.081,2.93c0.268,0.44,0.623,0.698,1.025,0.836
			c0.749,0.258,1.658,0.102,2.46-0.052c0.032-0.002,0.063-0.007,0.096-0.015c3.857-0.945,6.69-5.583,7.797-8.736
			c2.556-0.145,3.578,1.006,3.619,1.054c0.168,0.206,0.451,0.281,0.699,0.184C23.217,19.697,23.375,19.452,23.36,19.186z
			 M14.831,6.995c0.535-0.201,1.031,0.227,1.933,1.262c1.408,1.833,2.178,5.247,1.001,9.085c-0.076-0.008-0.154-0.002-0.232,0.021
			c-2.132,0.62-3.074-0.559-3.359-1.037c1.274-4.521,0.431-8.016,0.39-8.179c-0.004-0.018-0.013-0.035-0.019-0.053
			C14.383,7.269,14.48,7.127,14.831,6.995z M16.497,18.765c-0.958,1.227-1.897,1.863-2.46,2.165
			c-0.166-0.779-0.173-2.004-0.119-3.042c0.32,0.267,0.711,0.505,1.177,0.666C15.504,18.695,15.972,18.776,16.497,18.765z
			 M10.604,13.829c-0.006-0.002-0.011-0.004-0.016-0.006c1.238-0.733,2.351-0.202,2.844,0.122c-0.072,0.466-0.167,0.952-0.288,1.452
			C12.148,14.519,11.28,14.062,10.604,13.829z M10.615,26.082c-1.342,0.258-1.994,0.288-2.29-0.199
			c-0.193-0.318-0.185-0.49,0.438-1.03c0.021-0.012,0.041-0.026,0.061-0.041c0.112-0.087,2.157-1.71,3.862-4.854
			c0.051,0.814,0.178,1.597,0.449,2.096c0.076,0.139,0.199,0.239,0.34,0.287c0.116,0.04,0.244,0.046,0.369,0.01
			c0.064-0.018,1.139-0.339,2.444-1.541c-0.379,0.678-0.802,1.33-1.25,1.918C14.077,23.991,12.532,25.589,10.615,26.082z
			 M19.043,17.315c0.115-0.428,0.212-0.867,0.29-1.315c0.746,0.214,1.856,0.709,2.431,1.83
			C21.107,17.543,20.209,17.31,19.043,17.315z"/>
		<path fill="#E4C52E" d="M70.886,52.52c-0.153-2.779-2.281-4.02-3.863-4.423c0.234-2.597-0.223-5.31-1.806-7.32
			c-0.013-0.016-0.028-0.029-0.042-0.044c-0.829-0.952-1.857-2.081-3.252-1.556c-1.498,0.565-1.193,1.947-0.953,2.973
			c0.108,0.629,0.281,2.013,0.139,3.825c-1.096-0.516-3.025-0.923-4.861,1.177c-0.171,0.195-0.201,0.477-0.075,0.704
			c0.126,0.227,0.382,0.35,0.637,0.308c0.014-0.002,1.422-0.125,3.481,1.895c-0.012,0.037-0.024,0.074-0.037,0.111
			c-1.322,3.744-3.579,6.034-4.374,6.757c-0.821,0.66-1.913,1.562-1.081,2.93c0.268,0.44,0.623,0.698,1.025,0.836
			c0.749,0.258,1.658,0.102,2.46-0.052c0.032-0.002,0.063-0.007,0.096-0.015c3.857-0.945,6.69-5.583,7.797-8.736
			c2.556-0.145,3.578,1.006,3.619,1.054c0.168,0.206,0.451,0.281,0.699,0.184C70.743,53.03,70.901,52.785,70.886,52.52z
			 M62.357,40.328c0.535-0.201,1.031,0.227,1.933,1.262c1.408,1.833,2.178,5.247,1.001,9.085c-0.076-0.008-0.154-0.002-0.232,0.021
			c-2.132,0.62-3.074-0.559-3.359-1.037c1.274-4.521,0.431-8.016,0.39-8.179c-0.005-0.018-0.013-0.035-0.019-0.053
			C61.908,40.602,62.006,40.461,62.357,40.328z M64.023,52.098c-0.958,1.227-1.897,1.863-2.46,2.165
			c-0.166-0.779-0.173-2.004-0.119-3.042c0.32,0.267,0.711,0.505,1.177,0.666C63.03,52.028,63.497,52.109,64.023,52.098z
			 M58.13,47.162c-0.006-0.002-0.011-0.004-0.016-0.006c1.238-0.733,2.351-0.202,2.844,0.122c-0.072,0.466-0.167,0.952-0.288,1.452
			C59.674,47.853,58.806,47.395,58.13,47.162z M58.141,59.415c-1.342,0.258-1.994,0.288-2.29-0.199
			c-0.193-0.318-0.185-0.49,0.438-1.03c0.021-0.012,0.041-0.026,0.061-0.041c0.112-0.087,2.157-1.71,3.862-4.854
			c0.051,0.814,0.178,1.597,0.449,2.096c0.076,0.139,0.199,0.239,0.34,0.287c0.116,0.04,0.244,0.046,0.369,0.01
			c0.064-0.018,1.139-0.339,2.444-1.541c-0.379,0.678-0.802,1.33-1.25,1.918C61.603,57.324,60.058,58.922,58.141,59.415z
			 M66.569,50.648c0.115-0.428,0.212-0.867,0.29-1.315c0.746,0.214,1.856,0.709,2.431,1.83
			C68.633,50.877,67.735,50.643,66.569,50.648z"/>
		<path fill="#E4C52E" d="M38.408,52.52c-0.153-2.779-2.281-4.02-3.863-4.423c0.234-2.597-0.223-5.31-1.806-7.32
			c-0.013-0.016-0.028-0.029-0.042-0.044c-0.829-0.952-1.857-2.081-3.252-1.556c-1.498,0.565-1.193,1.947-0.953,2.973
			c0.108,0.629,0.281,2.013,0.139,3.825c-1.096-0.516-3.025-0.923-4.861,1.177c-0.171,0.195-0.201,0.477-0.075,0.704
			c0.126,0.227,0.382,0.35,0.637,0.308c0.014-0.002,1.422-0.125,3.481,1.895c-0.012,0.037-0.024,0.074-0.037,0.111
			c-1.322,3.744-3.579,6.034-4.374,6.757c-0.821,0.66-1.913,1.562-1.081,2.93c0.268,0.44,0.623,0.698,1.025,0.836
			c0.749,0.258,1.658,0.102,2.46-0.052c0.032-0.002,0.063-0.007,0.096-0.015c3.857-0.945,6.69-5.583,7.797-8.736
			c2.556-0.145,3.578,1.006,3.619,1.054c0.168,0.206,0.451,0.281,0.699,0.184C38.265,53.03,38.423,52.785,38.408,52.52z
			 M29.879,40.328c0.535-0.201,1.031,0.227,1.933,1.262c1.408,1.833,2.178,5.247,1.001,9.085c-0.076-0.008-0.154-0.002-0.232,0.021
			c-2.132,0.62-3.074-0.559-3.359-1.037c1.274-4.521,0.431-8.016,0.39-8.179c-0.004-0.018-0.013-0.035-0.019-0.053
			C29.43,40.602,29.528,40.461,29.879,40.328z M31.544,52.098c-0.958,1.227-1.897,1.863-2.46,2.165
			c-0.166-0.779-0.173-2.004-0.119-3.042c0.32,0.267,0.711,0.505,1.177,0.666C30.552,52.028,31.019,52.109,31.544,52.098z
			 M25.652,47.163c-0.006-0.002-0.011-0.004-0.016-0.006c1.238-0.733,2.351-0.202,2.844,0.122c-0.072,0.466-0.167,0.952-0.288,1.452
			C27.196,47.853,26.328,47.395,25.652,47.163z M25.663,59.415c-1.342,0.258-1.994,0.288-2.29-0.199
			c-0.193-0.318-0.185-0.49,0.438-1.03c0.021-0.012,0.041-0.026,0.061-0.041c0.112-0.087,2.157-1.71,3.862-4.854
			c0.051,0.814,0.178,1.597,0.449,2.096c0.076,0.139,0.199,0.239,0.34,0.287c0.116,0.04,0.244,0.046,0.369,0.01
			c0.064-0.018,1.139-0.339,2.444-1.541c-0.379,0.678-0.802,1.33-1.25,1.918C29.124,57.324,27.58,58.922,25.663,59.415z
			 M34.091,50.648c0.115-0.428,0.212-0.867,0.29-1.315c0.746,0.214,1.856,0.709,2.431,1.83
			C36.155,50.877,35.257,50.643,34.091,50.648z"/>
		<path fill="#E4C52E" d="M55.661,19.186c-0.153-2.779-2.281-4.02-3.863-4.423c0.234-2.597-0.223-5.31-1.806-7.32
			C49.98,7.427,49.964,7.414,49.95,7.4c-0.829-0.952-1.857-2.081-3.252-1.556c-1.498,0.565-1.193,1.947-0.953,2.973
			c0.108,0.629,0.281,2.013,0.139,3.825c-1.096-0.516-3.025-0.923-4.861,1.177c-0.171,0.195-0.201,0.477-0.075,0.704
			c0.126,0.227,0.382,0.35,0.637,0.308c0.014-0.002,1.422-0.125,3.481,1.895c-0.012,0.037-0.024,0.074-0.037,0.111
			c-1.322,3.744-3.579,6.034-4.374,6.757c-0.821,0.66-1.913,1.562-1.081,2.93c0.268,0.44,0.623,0.698,1.025,0.836
			c0.749,0.258,1.658,0.102,2.46-0.052c0.032-0.002,0.063-0.007,0.096-0.015c3.857-0.945,6.69-5.583,7.797-8.736
			c2.556-0.145,3.578,1.006,3.619,1.054c0.168,0.206,0.451,0.281,0.699,0.184C55.518,19.697,55.676,19.452,55.661,19.186z
			 M47.132,6.995c0.535-0.201,1.031,0.227,1.933,1.262c1.408,1.833,2.178,5.247,1.001,9.085c-0.076-0.008-0.154-0.002-0.232,0.021
			c-2.132,0.62-3.074-0.559-3.359-1.037c1.274-4.521,0.431-8.016,0.39-8.179c-0.005-0.018-0.013-0.035-0.019-0.053
			C46.684,7.269,46.781,7.127,47.132,6.995z M48.798,18.765c-0.958,1.227-1.897,1.863-2.46,2.165
			c-0.166-0.779-0.173-2.004-0.119-3.042c0.32,0.267,0.711,0.505,1.177,0.666C47.805,18.695,48.272,18.776,48.798,18.765z
			 M42.905,13.829c-0.006-0.002-0.011-0.004-0.016-0.006c1.238-0.733,2.351-0.202,2.844,0.122c-0.072,0.466-0.167,0.952-0.288,1.452
			C44.449,14.519,43.581,14.062,42.905,13.829z M42.916,26.082c-1.342,0.258-1.994,0.288-2.29-0.199
			c-0.193-0.318-0.185-0.49,0.438-1.03c0.021-0.012,0.041-0.026,0.061-0.041c0.112-0.087,2.157-1.71,3.862-4.854
			c0.051,0.814,0.178,1.597,0.449,2.096c0.076,0.139,0.199,0.239,0.34,0.287c0.116,0.04,0.244,0.046,0.369,0.01
			c0.064-0.018,1.139-0.339,2.444-1.541c-0.379,0.678-0.802,1.33-1.25,1.918C46.378,23.991,44.833,25.589,42.916,26.082z
			 M51.344,17.315c0.115-0.428,0.212-0.867,0.29-1.315c0.746,0.214,1.856,0.709,2.431,1.83C53.408,17.543,52.51,17.31,51.344,17.315
			z"/>
	</g>
</g>
</svg>
