<?xml version="1.0" encoding="utf-8"?>
<!-- Generator: Adobe Illustrator 17.1.0, SVG Export Plug-In . SVG Version: 6.00 Build 0)  -->
<!DOCTYPE svg PUBLIC "-//W3C//DTD SVG 1.1//EN" "http://www.w3.org/Graphics/SVG/1.1/DTD/svg11.dtd">
<svg version="1.1" id="Layer_1" xmlns="http://www.w3.org/2000/svg" xmlns:xlink="http://www.w3.org/1999/xlink" x="0px" y="0px"
	 viewBox="102.4 -1.2 40.7 42.3" enable-background="new 102.4 -1.2 40.7 42.3" xml:space="preserve">
<g id="Layer_1_1_" display="none">
</g>
<g id="Layer_2">
	<g opacity="0.24">
		<path fill="#27493A" d="M113.5,11.7c-0.1-1.7-1.4-2.5-2.4-2.7c0.1-1.6-0.1-3.2-1.1-4.5l0,0c-0.5-0.6-1.1-1.3-2-1s-0.7,1.2-0.6,1.8
			c0.1,0.4,0.2,1.2,0.1,2.3c-0.7-0.3-1.8-0.6-3,0.7c-0.1,0.1-0.1,0.3,0,0.4c0.1,0.1,0.2,0.2,0.4,0.2c0,0,0.9-0.1,2.1,1.2
			c0,0,0,0,0,0.1c-0.8,2.3-2.2,3.7-2.7,4.1s-1.2,1-0.7,1.8c0.2,0.3,0.4,0.4,0.6,0.5c0.5,0.2,1,0.1,1.5,0c0,0,0,0,0.1,0
			c2.4-0.6,4.1-3.4,4.8-5.3c1.6-0.1,2.2,0.6,2.2,0.6c0.1,0.1,0.3,0.2,0.4,0.1C113.4,12,113.5,11.9,113.5,11.7z M108.2,4.3
			c0.3-0.1,0.6,0.1,1.2,0.8c0.9,1.1,1.3,3.2,0.6,5.6h-0.1c-1.3,0.4-1.9-0.3-2.1-0.6c0.8-2.8,0.3-4.9,0.2-5l0,0
			C108,4.4,108,4.4,108.2,4.3z M109.3,11.5c-0.6,0.7-1.2,1.1-1.5,1.3c-0.1-0.5-0.1-1.2-0.1-1.9c0.2,0.2,0.4,0.3,0.7,0.4
			S108.9,11.5,109.3,11.5z M105.7,8.5C105.7,8.4,105.7,8.4,105.7,8.5c0.7-0.5,1.4-0.1,1.7,0.1c0,0.3-0.1,0.6-0.2,0.9
			C106.6,8.9,106.1,8.6,105.7,8.5z M105.7,15.9c-0.8,0.2-1.2,0.2-1.4-0.1c-0.1-0.2-0.1-0.3,0.3-0.6l0,0c0.1-0.1,1.3-1,2.4-3
			c0,0.5,0.1,1,0.3,1.3c0,0.1,0.1,0.1,0.2,0.2c0.1,0,0.1,0,0.2,0c0,0,0.7-0.2,1.5-0.9c-0.2,0.4-0.5,0.8-0.8,1.2
			C107.8,14.7,106.8,15.6,105.7,15.9z M110.8,10.6c0.1-0.3,0.1-0.5,0.2-0.8c0.5,0.1,1.1,0.4,1.5,1.1
			C112.1,10.7,111.5,10.6,110.8,10.6z"/>
		<path fill="#27493A" d="M142.5,32.1c-0.1-1.7-1.4-2.5-2.4-2.7c0.1-1.6-0.1-3.2-1.1-4.5l0,0c-0.5-0.6-1.1-1.3-2-1s-0.7,1.2-0.6,1.8
			c0.1,0.4,0.2,1.2,0.1,2.3c-0.7-0.3-1.8-0.6-3,0.7c-0.1,0.1-0.1,0.3,0,0.4s0.2,0.2,0.4,0.2c0,0,0.9-0.1,2.1,1.2c0,0,0,0,0,0.1
			c-0.8,2.3-2.2,3.7-2.7,4.1c-0.5,0.4-1.2,1-0.7,1.8c0.2,0.3,0.4,0.4,0.6,0.5c0.5,0.2,1,0.1,1.5,0c0,0,0,0,0.1,0
			c2.4-0.6,4.1-3.4,4.8-5.3c1.6-0.1,2.2,0.6,2.2,0.6c0.1,0.1,0.3,0.2,0.4,0.1C142.4,32.4,142.5,32.3,142.5,32.1z M137.3,24.6
			c0.3-0.1,0.6,0.1,1.2,0.8c0.9,1.1,1.3,3.2,0.6,5.6H139c-1.3,0.4-1.9-0.3-2.1-0.6c0.8-2.8,0.3-4.9,0.2-5l0,0
			C137,24.8,137.1,24.7,137.3,24.6z M138.3,31.8c-0.6,0.7-1.2,1.1-1.5,1.3c-0.1-0.5-0.1-1.2-0.1-1.9c0.2,0.2,0.4,0.3,0.7,0.4
			C137.7,31.8,138,31.8,138.3,31.8z M134.7,28.8L134.7,28.8c0.7-0.5,1.4-0.1,1.7,0.1c0,0.3-0.1,0.6-0.2,0.9
			C135.7,29.2,135.1,29,134.7,28.8z M134.7,36.3c-0.8,0.2-1.2,0.2-1.4-0.1c-0.1-0.2-0.1-0.3,0.3-0.6l0,0c0.1-0.1,1.3-1,2.4-3
			c0,0.5,0.1,1,0.3,1.3c0,0.1,0.1,0.1,0.2,0.2c0.1,0,0.1,0,0.2,0c0,0,0.7-0.2,1.5-0.9c-0.2,0.4-0.5,0.8-0.8,1.2
			C136.8,35,135.9,36,134.7,36.3z M139.9,31c0.1-0.3,0.1-0.5,0.2-0.8c0.5,0.1,1.1,0.4,1.5,1.1C141.1,31.1,140.6,30.9,139.9,31z"/>
		<path fill="#27493A" d="M122.7,32.1c-0.1-1.7-1.4-2.5-2.4-2.7c0.1-1.6-0.1-3.2-1.1-4.5l0,0c-0.5-0.6-1.1-1.3-2-1s-0.7,1.2-0.6,1.8
			c0.1,0.4,0.2,1.2,0.1,2.3c-0.7-0.3-1.8-0.6-3,0.7c-0.1,0.1-0.1,0.3,0,0.4s0.2,0.2,0.4,0.2c0,0,0.9-0.1,2.1,1.2c0,0,0,0,0,0.1
			c-0.8,2.3-2.2,3.7-2.7,4.1c-0.5,0.4-1.2,1-0.7,1.8c0.2,0.3,0.4,0.4,0.6,0.5c0.5,0.2,1,0.1,1.5,0c0,0,0,0,0.1,0
			c2.4-0.6,4.1-3.4,4.8-5.3c1.6-0.1,2.2,0.6,2.2,0.6c0.1,0.1,0.3,0.2,0.4,0.1C122.6,32.4,122.7,32.3,122.7,32.1z M117.4,24.6
			c0.3-0.1,0.6,0.1,1.2,0.8c0.9,1.1,1.3,3.2,0.6,5.6h-0.1c-1.3,0.4-1.9-0.3-2.1-0.6c0.8-2.8,0.3-4.9,0.2-5l0,0
			C117.2,24.8,117.2,24.7,117.4,24.6z M118.5,31.8c-0.6,0.7-1.2,1.1-1.5,1.3c-0.1-0.5-0.1-1.2-0.1-1.9c0.2,0.2,0.4,0.3,0.7,0.4
			C117.9,31.8,118.1,31.8,118.5,31.8z M114.9,28.8L114.9,28.8c0.7-0.5,1.4-0.1,1.7,0.1c0,0.3-0.1,0.6-0.2,0.9
			C115.8,29.2,115.3,29,114.9,28.8z M114.9,36.3c-0.8,0.2-1.2,0.2-1.4-0.1c-0.1-0.2-0.1-0.3,0.3-0.6l0,0c0.1-0.1,1.3-1,2.4-3
			c0,0.5,0.1,1,0.3,1.3c0,0.1,0.1,0.1,0.2,0.2c0.1,0,0.1,0,0.2,0c0,0,0.7-0.2,1.5-0.9c-0.2,0.4-0.5,0.8-0.8,1.2
			C117,35,116,36,114.9,36.3z M120,31c0.1-0.3,0.1-0.5,0.2-0.8c0.5,0.1,1.1,0.4,1.5,1.1C121.3,31.1,120.7,30.9,120,31z"/>
		<path fill="#27493A" d="M133.2,11.7c-0.1-1.7-1.4-2.5-2.4-2.7c0.1-1.6-0.1-3.2-1.1-4.5l0,0c-0.5-0.6-1.1-1.3-2-1
			c-0.9,0.3-0.7,1.2-0.6,1.8c0.1,0.4,0.2,1.2,0.1,2.3c-0.7-0.3-1.8-0.6-3,0.7c-0.1,0.1-0.1,0.3,0,0.4c0.1,0.1,0.2,0.2,0.4,0.2
			c0,0,0.9-0.1,2.1,1.2c0,0,0,0,0,0.1c-0.8,2.3-2.2,3.7-2.7,4.1s-1.2,1-0.7,1.8c0.2,0.3,0.4,0.4,0.6,0.5c0.5,0.2,1,0.1,1.5,0
			c0,0,0,0,0.1,0c2.4-0.6,4.1-3.4,4.8-5.3c1.6-0.1,2.2,0.6,2.2,0.6c0.1,0.1,0.3,0.2,0.4,0.1C133.1,12,133.2,11.9,133.2,11.7z
			 M128,4.3c0.3-0.1,0.6,0.1,1.2,0.8c0.9,1.1,1.3,3.2,0.6,5.6h-0.1c-1.3,0.4-1.9-0.3-2.1-0.6c0.8-2.8,0.3-4.9,0.2-5l0,0
			C127.7,4.4,127.8,4.4,128,4.3z M129,11.5c-0.6,0.7-1.2,1.1-1.5,1.3c-0.1-0.5-0.1-1.2-0.1-1.9c0.2,0.2,0.4,0.3,0.7,0.4
			C128.4,11.4,128.7,11.5,129,11.5z M125.4,8.5C125.4,8.4,125.4,8.4,125.4,8.5c0.7-0.5,1.4-0.1,1.7,0.1c0,0.3-0.1,0.6-0.2,0.9
			C126.3,8.9,125.8,8.6,125.4,8.5z M125.4,15.9c-0.8,0.2-1.2,0.2-1.4-0.1c-0.1-0.2-0.1-0.3,0.3-0.6l0,0c0.1-0.1,1.3-1,2.4-3
			c0,0.5,0.1,1,0.3,1.3c0,0.1,0.1,0.1,0.2,0.2c0.1,0,0.1,0,0.2,0c0,0,0.7-0.2,1.5-0.9c-0.2,0.4-0.5,0.8-0.8,1.2
			C127.5,14.7,126.6,15.6,125.4,15.9z M130.6,10.6c0.1-0.3,0.1-0.5,0.2-0.8c0.5,0.1,1.1,0.4,1.5,1.1
			C131.8,10.7,131.3,10.6,130.6,10.6z"/>
	</g>
</g>
</svg>
